PathFileType	4	(X/Y/Z)	9_coords_data.trc
DataRate	CameraRate	NumFrames	NumMarkers	Units	OrigDataRate	OrigDataStartFrame	OrigNumFrames
30.0	30.0	7	21	m	30.0	45	56
Frame#	Time	THUMB_TIP	THUMB_IP	THUMB_MCP	THUMB_CMC	INDEX_TIP	INDEX_DIP	INDEX_PIP	INDEX_MCP	MIDDLE_TIP	MIDDLE_DIP	MIDDLE_PIP	MIDDLE_MCP	RING_TIP	RING_DIP	RING_PIP	RING_MCP	PINKY_TIP	PINKY_DIP	PINKY_PIP	PINKY_MCP	WRIST
X1	Y1	Z1	X2	Y2	Z2	X3	Y3	Z3	X4	Y4	Z4	X5	Y5	Z5	X6	Y6	Z6	X7	Y7	Z7	X8	Y8	Z8	X9	Y9	Z9	X10	Y10	Z10	X11	Y11	Z11	X12	Y12	Z12	X13	Y13	Z13	X14	Y14	Z14	X15	Y15	Z15	X16	Y16	Z16	X17	Y17	Z17	X18	Y18	Z18	X19	Y19	Z19	X20	Y20	Z20	X21	Y21	Z21
44	1.4666666666666666	0.048328998565673825	-0.013063199996948242	1.0265400390625	0.02826140022277832	-0.016261699676513672	1.04502001953125	0.005241030216217041	-0.01561180019378662	1.063510009765625	-0.01603849983215332	0.003921710014343261	1.077449951171875	0.046702598571777346	0.008437689781188964	0.971155029296875	0.02742729949951172	0.001115020036697387	0.9776820068359375	0.006562699794769287	-0.00583689022064209	0.986676025390625	-0.017050399780273437	-0.01136139965057373	1.0191599731445313	0.04008319854736328	0.036122001647949216	0.9543720092773438	0.020114599227905275	0.02896109962463379	0.9648740234375	-0.005516129970550537	0.02076300048828125	0.9789669799804688	-0.027008199691772462	0.010572099685668945	1.015260009765625	0.03730550003051758	0.05822620010375976	0.972656005859375	0.016179100036621093	0.053688899993896484	0.980791015625	-0.01019379997253418	0.046062599182128905	0.9917130126953125	-0.03199189949035645	0.032401199340820315	1.02227001953125	0.01687899971008301	0.0750280990600586	1.0047999877929688	-0.001010720014572143	0.0730386962890625	1.0098900146484375	-0.018774499893188478	0.06764800262451172	1.0172999877929687	-0.03353929901123047	0.05269620132446289	1.036969970703125	-0.05207009887695312	0.010140700340270996	1.09875
45	1.5	0.048171100616455076	-0.012520099639892578	1.026219970703125	0.028102399826049805	-0.01589050006866455	1.04475	0.0048239102363586426	-0.015325499534606933	1.0631800537109375	-0.016406700134277342	0.004066460132598877	1.0775799560546875	0.04637329864501953	0.008571889877319336	0.970947021484375	0.027102399826049804	0.001245740056037902	0.9775139770507812	0.006175570011138916	-0.0057312102317810054	0.9864569702148438	-0.01731730079650879	-0.011226900100708008	1.0190499877929688	0.03985229873657226	0.03635480117797851	0.9542739868164063	0.01988240051269531	0.02910449981689453	0.964739013671875	-0.005787819862365723	0.02093779945373535	0.9788330078125	-0.027246299743652343	0.010756799697875977	1.0151599731445313	0.03699150085449219	0.0583317985534668	0.9725499877929688	0.01592269992828369	0.05382360076904297	0.9806829833984375	-0.010483799934387207	0.046207698822021484	0.9915579833984375	-0.032202098846435545	0.03258390045166016	1.0221400146484374	0.016830799102783203	0.07494290161132812	1.0048599853515625	-0.001053560018539428	0.0730906982421875	1.0097999877929686	-0.018908599853515624	0.0678052978515625	1.0171500244140625	-0.03374800109863281	0.052877498626708985	1.036800048828125	-0.05232590103149414	0.01028380012512207	1.09868994140625
46	1.5333333333333334	0.04811360168457031	-0.012110699653625488	1.0260999755859375	0.028063600540161132	-0.015563699722290039	1.0446400146484376	0.004866549968719483	-0.015037599563598633	1.0633399658203124	-0.015754599571228028	0.00424779987335205	1.0766600341796875	0.04629819869995117	0.008706330299377441	0.9709390258789062	0.026935199737548828	0.00134810996055603	0.9773759765625	0.006079619884490967	-0.005585169792175293	0.9863460083007812	-0.01733930015563965	-0.011146100044250488	1.018780029296875	0.03980910110473633	0.03642430114746094	0.9543419799804688	0.019892200469970703	0.02915920066833496	0.9647520141601562	-0.005929110050201416	0.02095989990234375	0.97872998046875	-0.027325899124145507	0.010787199974060059	1.015010009765625	0.03697740173339844	0.05839030075073242	0.9726010131835937	0.015874600410461424	0.05388690185546875	0.9806439819335937	-0.010595600128173828	0.046300201416015624	0.991458984375	-0.03231689834594727	0.03262929916381836	1.021969970703125	0.016871799468994142	0.07476490020751952	1.0049299926757813	-0.000989915013313293	0.07306349945068359	1.0096799926757813	-0.018982000350952148	0.06785340118408204	1.016969970703125	-0.03377740097045898	0.05298580169677734	1.0365799560546876	-0.05230009841918945	0.010277700424194337	1.0985999755859375
47	1.5666666666666667	0.04808330154418945	-0.011861499786376952	1.0256600341796875	0.02821310043334961	-0.015068799972534179	1.0443800048828125	0.0050037698745727536	-0.014844499588012695	1.063199951171875	-0.01607460021972656	0.004287209987640381	1.0770699462890625	0.046394401550292966	0.00876809024810791	0.9709769897460937	0.027057100296020507	0.0014269900321960448	0.9773170166015624	0.006147649765014649	-0.0055342698097229	0.9861939697265625	-0.017416799545288086	-0.011164299964904785	1.01875	0.04008060073852539	0.03638570022583008	0.9544810180664063	0.020063699722290038	0.029188499450683594	0.9646710205078125	-0.005746819972991943	0.021043100357055665	0.9786160278320313	-0.027404699325561523	0.010800200462341309	1.0148599853515625	0.03740570068359375	0.058409198760986325	0.973031982421875	0.01626289939880371	0.05395059967041015	0.980801025390625	-0.010315400123596191	0.04638000106811523	0.991427001953125	-0.03232379913330078	0.03264289855957031	1.0218499755859376	0.017113399505615235	0.0745615005493164	1.0050399780273438	-0.0008618789911270141	0.07293460083007812	1.0097000122070312	-0.01888759994506836	0.06777149963378906	1.0168900146484374	-0.03375379943847656	0.053000099182128904	1.036489990234375	-0.052368698120117185	0.010327799797058106	1.0986400146484374
48	1.6	0.04836999893188477	-0.01166759967803955	1.0255999755859375	0.02814150047302246	-0.015128399848937988	1.0444000244140625	0.005099589824676514	-0.015010000228881836	1.0629000244140625	-0.01596280002593994	0.004246990203857422	1.076800048828125	0.04643600082397461	0.008489069938659667	0.9708179931640625	0.027097900390625	0.001146080017089843	0.9771669921875	0.006105720043182373	-0.00581919002532959	0.9860079956054687	-0.017337099075317382	-0.011389200210571288	1.0188200073242188	0.04036190032958984	0.0361072998046875	0.9545250244140625	0.020286199569702148	0.028988500595092774	0.9646430053710937	-0.005570429801940918	0.020872600555419923	0.97847900390625	-0.02726849937438965	0.010636199951171875	1.0146599731445312	0.0378047981262207	0.05819490051269531	0.9732540283203125	0.016570199966430665	0.05375859832763672	0.9809010009765625	-0.010087499618530274	0.04625320053100586	0.991333984375	-0.0322318000793457	0.032570301055908205	1.0216699829101563	0.0174060001373291	0.07415679931640624	1.0051500244140625	-0.0006717200279235841	0.07267040252685547	1.0096400146484374	-0.01874530029296875	0.06755850219726563	1.0167100219726561	-0.03373939895629883	0.05282279968261719	1.0362900390625	-0.05235279846191406	0.010275099754333496	1.0983900146484376
49	1.6333333333333333	0.048270999908447264	-0.011904000282287597	1.0255899658203125	0.028325700759887697	-0.015309499740600587	1.04418994140625	0.0050329499244689945	-0.015103199958801269	1.0626600341796875	-0.016317399978637695	0.00406824016571045	1.0768299560546875	0.04651449966430664	0.0081173095703125	0.970635009765625	0.027148500442504882	0.0008055379986763	0.9769569702148437	0.0061668701171875	-0.006105000019073486	0.9858389892578125	-0.017227500915527345	-0.011555299758911133	1.0184000244140625	0.040375499725341796	0.03578900146484375	0.95414599609375	0.020287799835205077	0.028603500366210937	0.9643319702148437	-0.0055784997940063474	0.020532100677490235	0.9782100219726563	-0.027170799255371095	0.010380499839782715	1.0144400024414062	0.03807059860229492	0.05783150100708008	0.973302001953125	0.01686870002746582	0.05344329833984375	0.9807979736328125	-0.00985554027557373	0.04598109817504883	0.9911279907226562	-0.032182300567626956	0.032242000579833986	1.0214299926757813	0.017553600311279297	0.07363829803466797	1.0051300048828125	-0.00047542798519134506	0.07229340362548828	1.0094000244140624	-0.018596599578857422	0.06725180053710937	1.0163300170898437	-0.033776798248291016	0.052607398986816406	1.035989990234375	-0.05202980041503906	0.01023040008544922	1.0978399658203124
50	1.6666666666666667	0.04831259918212891	-0.012256400108337402	1.02531005859375	0.028202199935913087	-0.015713199615478516	1.043969970703125	0.00499521017074585	-0.015321200370788574	1.062530029296875	-0.01633300018310547	0.0037608098983764647	1.0766600341796875	0.046584701538085936	0.00768435001373291	0.9704530029296875	0.02723640060424805	0.00047536399960517806	0.9768289794921875	0.006197440147399902	-0.006488490104675293	0.9855499877929688	-0.017282100677490236	-0.011920100212097167	1.018219970703125	0.040623401641845705	0.035392101287841794	0.9541309814453125	0.0205310001373291	0.02828529930114746	0.9642429809570312	-0.005449069976806641	0.020185300827026367	0.9780479736328125	-0.027228500366210936	0.010129400253295898	1.0142899780273438	0.03838420104980469	0.057433101654052736	0.9733150024414062	0.01712409973144531	0.05303089904785156	0.9807319946289063	-0.009687840461730957	0.04563100051879883	0.990958984375	-0.032140499114990236	0.032019798278808596	1.0211900024414062	0.01768510055541992	0.07313780212402343	1.00502001953125	-0.00035480201244354206	0.07186699676513672	1.009260009765625	-0.018546600341796875	0.06691419982910156	1.0161300048828126	-0.0337234001159668	0.05228620147705078	1.035719970703125	-0.05230300140380859	0.00986089038848877	1.0980799560546874
